# xmcd
#
# Track frame offsets:
#	150
#	10971
#	27877
#	44695
#	60682
#	72455
#	91244
#	106775
#	123047
#	135665
#	153508
#
# Disc length: 2150 seconds
#
# Revision: 0
# Processed by: cddbd v1.5.2PL0 Copyright (c) Steve Scherf et al.
# Submitted via: dBpowerAMP V4.0
#
DISCID=8d08640b
DTITLE=Common - Be
DYEAR=1900
DGENRE=
TTITLE0=Be (Intro)
TTITLE1=The Corner
TTITLE2=Go!
TTITLE3=Faithful
TTITLE4=Testify
TTITLE5=Love Is...
TTITLE6=Chi-City
TTITLE7=The Food
TTITLE8=Real People
TTITLE9=They Say
TTITLE10=It's Your World
EXTD=
EXTT0=
EXTT1=
EXTT2=
EXTT3=
EXTT4=
EXTT5=
EXTT6=
EXTT7=
EXTT8=
EXTT9=
EXTT10=
PLAYORDER=
